<svg width="50" height="50" viewBox="0 0 50 50" fill="none" xmlns="http://www.w3.org/2000/svg">
<circle cx="25" cy="25" r="25" fill="#F5A426"/>
<path d="M29.6998 32.45V34H21.4248V32.45H24.7998V17.925C24.6498 18.125 24.4248 18.35 24.1248 18.6C23.8415 18.8333 23.5081 19.0667 23.1248 19.3C22.7415 19.5167 22.3498 19.7 21.9498 19.85C21.5498 20 21.1831 20.075 20.8498 20.075V18.475C21.2998 18.475 21.7498 18.3583 22.1998 18.125C22.6498 17.875 23.0665 17.6 23.4498 17.3C23.8498 16.9833 24.1665 16.7 24.3998 16.45C24.6498 16.1833 24.7831 16.0417 24.7998 16.025H26.5248V32.45H29.6998Z" fill="black"/>
</svg>
